<svg width="47" height="47" viewBox="0 0 47 47" fill="none" xmlns="http://www.w3.org/2000/svg">
<path d="M23.3649 47C20.1686 47 17.1523 46.3805 14.3161 45.1416C11.4799 43.9045 9.00383 42.2279 6.88793 40.112C4.77203 37.9961 3.09462 35.5084 1.85569 32.6488C0.618563 29.791 0 26.7414 0 23.5C0 20.2136 0.630268 17.1406 1.8908 14.281C3.15134 11.4232 4.87287 8.9363 7.0554 6.8204C9.23973 4.7045 11.8058 3.03879 14.7537 1.82327C17.7033 0.607758 20.8439 0 24.1753 0C27.1916 0 30.0728 0.506015 32.8189 1.51805C35.5651 2.53188 37.9853 3.93917 40.0796 5.73994C42.1721 7.54071 43.8486 9.68992 45.1092 12.1876C46.3697 14.687 47 17.4224 47 20.3937C47 24.2653 45.9087 27.4167 43.7262 29.8477C41.5419 32.2787 38.4013 33.4942 34.3046 33.4942H29.5776C28.227 33.4942 27.079 33.9669 26.1336 34.9123C25.1882 35.8577 24.7155 37.0057 24.7155 38.3563C24.7155 39.6619 25.0531 40.6748 25.7284 41.3951C26.4037 42.1154 26.7414 42.9483 26.7414 43.8937C26.7414 44.9291 26.4487 45.7061 25.8635 46.2247C25.2782 46.7416 24.4454 47 23.3649 47ZM8.64367 24.4454C9.27394 24.4454 9.81417 24.2203 10.2644 23.7701C10.7146 23.3199 10.9397 22.7797 10.9397 22.1494C10.9397 21.5191 10.7146 20.9789 10.2644 20.5287C9.81417 20.0785 9.27394 19.8534 8.64367 19.8534C8.01341 19.8534 7.47318 20.0785 7.02299 20.5287C6.57279 20.9789 6.3477 21.5191 6.3477 22.1494C6.3477 22.7797 6.57279 23.3199 7.02299 23.7701C7.47318 24.2203 8.01341 24.4454 8.64367 24.4454ZM16.7471 13.6408C17.3774 13.6408 17.9176 13.4157 18.3678 12.9655C18.818 12.5153 19.0431 11.9751 19.0431 11.3448C19.0431 10.7146 18.818 10.1743 18.3678 9.72413C17.9176 9.27394 17.3774 9.04885 16.7471 9.04885C16.1168 9.04885 15.5766 9.27394 15.1264 9.72413C14.6762 10.1743 14.4511 10.7146 14.4511 11.3448C14.4511 11.9751 14.6762 12.5153 15.1264 12.9655C15.5766 13.4157 16.1168 13.6408 16.7471 13.6408ZM30.2529 13.6408C30.8831 13.6408 31.4234 13.4157 31.8735 12.9655C32.3237 12.5153 32.5488 11.9751 32.5488 11.3448C32.5488 10.7146 32.3237 10.1743 31.8735 9.72413C31.4234 9.27394 30.8831 9.04885 30.2529 9.04885C29.6226 9.04885 29.0824 9.27394 28.6322 9.72413C28.182 10.1743 27.9569 10.7146 27.9569 11.3448C27.9569 11.9751 28.182 12.5153 28.6322 12.9655C29.0824 13.4157 29.6226 13.6408 30.2529 13.6408ZM38.3563 24.4454C38.9866 24.4454 39.5268 24.2203 39.977 23.7701C40.4272 23.3199 40.6523 22.7797 40.6523 22.1494C40.6523 21.5191 40.4272 20.9789 39.977 20.5287C39.5268 20.0785 38.9866 19.8534 38.3563 19.8534C37.726 19.8534 37.1858 20.0785 36.7356 20.5287C36.2854 20.9789 36.0603 21.5191 36.0603 22.1494C36.0603 22.7797 36.2854 23.3199 36.7356 23.7701C37.1858 24.2203 37.726 24.4454 38.3563 24.4454ZM23.3649 45.1092C23.8601 45.1092 24.232 45.0074 24.4805 44.8039C24.7272 44.6023 24.8506 44.2988 24.8506 43.8937C24.8506 43.2634 24.5129 42.6106 23.8376 41.9353C23.1623 41.26 22.8247 40.112 22.8247 38.4914C22.8247 36.5105 23.4775 34.8673 24.783 33.5618C26.0886 32.2562 27.6868 31.6034 29.5776 31.6034H34.3046C37.8161 31.6034 40.4947 30.568 42.3405 28.4971C44.1863 26.4262 45.1092 23.7251 45.1092 20.3937C45.1092 14.9013 42.9933 10.4444 38.7615 7.02299C34.5297 3.60153 29.6676 1.8908 24.1753 1.8908C17.9176 1.8908 12.6396 3.98419 8.34115 8.17097C4.04092 12.3578 1.8908 17.4674 1.8908 23.5C1.8908 29.4875 3.9959 34.5864 8.20609 38.7966C12.4145 43.005 17.4674 45.1092 23.3649 45.1092Z" fill="white"/>
</svg>
