<svg width="161" height="37" viewBox="0 0 161 37" fill="none" xmlns="http://www.w3.org/2000/svg">
<path d="M17.0535 20.2027C12.3195 23.4163 5.84381 22.122 2.67293 17.3908C2.13701 16.632 1.73507 15.7839 1.4671 14.8913C1.82439 14.9359 2.18167 14.9359 2.53895 14.9359C4.68264 14.9359 6.78167 14.5342 8.79138 13.7308C8.79138 13.8647 8.79138 13.9986 8.79138 14.1325C8.74672 17.6586 11.605 20.5151 15.1331 20.5151C15.803 20.5151 16.4283 20.4259 17.0535 20.2027Z" fill="#FF800D"/>
<path d="M14.9992 25.2463C14.9992 24.4876 15.1332 23.7734 15.4012 23.0593C14.24 23.5503 13.0342 23.8181 11.7837 23.9073C11.605 23.9073 11.4711 23.9073 11.2924 23.9073C9.01475 23.9073 6.78174 23.1486 4.99533 21.7649C4.10212 21.0508 3.29824 20.2027 2.62834 19.2654C-1.16778 23.5056 -0.810503 30.0668 3.43222 33.9053C7.7196 37.7438 14.2847 37.3421 18.0808 33.1019C18.572 32.5663 19.0186 31.9414 19.3759 31.3166C16.7856 30.4239 14.9992 27.969 14.9992 25.2463Z" fill="#0061FF"/>
<path d="M20.3137 0.251374C18.0807 -0.239599 15.7137 -0.0164299 13.6147 0.965516C13.704 0.965516 13.7933 0.965516 13.9273 0.965516C17.4555 0.965516 20.3137 3.82209 20.3137 7.34816V36.5387H28.3972V10.3386C28.3972 5.51817 25.0477 1.32259 20.3137 0.251374Z" fill="#0061FF"/>
<path d="M15.2671 6.14307C15.2671 3.95601 13.4807 2.17066 11.2924 2.17066C11.1137 2.17066 10.9798 2.17066 10.8011 2.21529C5.39722 2.617 1.19916 7.12502 1.19916 12.5257C1.19916 12.8828 1.19916 13.2399 1.24382 13.5523C1.64576 13.5969 2.09236 13.5969 2.49431 13.5969C6.73703 13.5969 10.8011 11.9901 13.9273 9.08891C14.7759 8.37477 15.2671 7.30356 15.2671 6.14307Z" fill="#FF800D"/>
<path d="M38.5257 36.5678C37.4539 36.7017 36.4267 35.9875 36.2927 34.8717C36.248 34.6931 36.248 34.5146 36.2927 34.2914V15.4559C36.1587 14.3847 36.8733 13.3581 37.9898 13.2242C38.1684 13.1796 38.3471 13.1796 38.5704 13.2242H45.0014C48.9315 13.2242 51.9238 14.2508 54.0675 16.2593C56.2112 18.2679 57.283 21.1691 57.283 24.9183C57.283 28.6676 56.2112 31.5241 54.0675 33.5773C51.9238 35.6304 48.9315 36.6124 45.0014 36.6124H38.5257V36.5678ZM40.5354 33.0417H44.7335C50.1374 33.0417 52.817 30.319 52.817 24.8737C52.817 19.4283 50.1374 16.7057 44.7335 16.7057H40.5354V33.0417Z" fill="#232323"/>
<path d="M62.5529 36.8356C61.5257 36.9695 60.6325 36.2553 60.4986 35.2288C60.4539 35.0502 60.4986 34.8717 60.4986 34.6931V15.0096C60.4986 13.8491 61.4364 12.9564 62.5529 12.9564C63.7141 12.9564 64.6073 13.8937 64.6073 15.0096V22.6866C65.1432 21.8386 65.9024 21.1244 66.8403 20.6781C67.8228 20.2318 68.85 19.964 69.9219 20.0086C73.7626 20.0086 75.6384 22.2403 75.6384 26.659V34.6931C75.683 35.8536 74.7898 36.7909 73.6287 36.8356C72.4675 36.8802 71.5296 35.9875 71.485 34.8271C71.485 34.7824 71.485 34.7378 71.485 34.6931V26.8822C71.5743 25.9003 71.3063 24.963 70.7704 24.1149C70.1898 23.49 69.3859 23.1776 68.5821 23.2669C67.5102 23.2222 66.4384 23.6239 65.6791 24.4274C64.9199 25.2754 64.5626 26.3466 64.6073 27.4625V34.7378C64.7413 35.7644 64.0714 36.7017 63.0442 36.8356C62.8655 36.8356 62.7316 36.8356 62.5529 36.8356Z" fill="#232323"/>
<path d="M81.2656 17.0627C80.5957 17.1074 79.9704 16.8842 79.4791 16.4825C78.6306 15.5898 78.6306 14.1615 79.4791 13.2689C79.9704 12.8671 80.6403 12.6886 81.2656 12.6886C82.918 12.6886 83.7219 13.4028 83.7219 14.8757C83.7219 16.3486 82.918 17.0627 81.2656 17.0627ZM81.2656 36.7909C80.685 36.8356 80.1491 36.6124 79.7471 36.2107C79.3898 35.7643 79.1665 35.1395 79.2112 34.5592V22.3742C79.2112 20.8566 79.8811 20.1425 81.2656 20.1425C82.65 20.1425 83.3646 20.9013 83.3646 22.3742V34.5146C83.4093 35.0948 83.2306 35.7197 82.8287 36.166C82.4267 36.6124 81.8461 36.8356 81.2656 36.7909Z" fill="#232323"/>
<path d="M95.6015 36.8355C94.485 36.8802 93.5471 36.1214 93.2792 35.0502L86.3568 15.4559C86.0889 14.8757 86.1782 14.2062 86.4908 13.6705C86.8927 13.1349 87.5626 12.8671 88.2326 12.9564C88.7238 12.9118 89.2151 13.0903 89.617 13.3581C90.019 13.7152 90.2869 14.1615 90.4209 14.6525L95.7355 30.4083L101.318 14.6525C101.541 13.6259 102.39 12.9118 103.417 12.9118C103.864 12.8671 104.31 13.0457 104.668 13.3581C105.025 13.7598 105.293 14.2062 105.471 14.6971L110.92 30.6314L116.458 14.6525C116.592 14.1615 116.86 13.7152 117.262 13.3581C117.664 13.0457 118.11 12.9118 118.602 12.9118C119.227 12.8671 119.807 13.1349 120.165 13.6259C120.522 14.1615 120.567 14.831 120.299 15.4113L113.287 35.0502C113.108 35.5412 112.84 36.0321 112.438 36.3892C111.59 36.9694 110.429 36.9694 109.58 36.3892C109.178 36.0321 108.866 35.5412 108.732 35.0502L103.328 19.6961L97.8792 35.0502C97.7005 35.5412 97.4326 36.0321 97.0306 36.3892C96.6287 36.7016 96.1374 36.8355 95.6015 36.8355Z" fill="#232323"/>
<path d="M125.033 17.0627C124.363 17.1074 123.737 16.8842 123.246 16.4825C122.398 15.5898 122.398 14.1615 123.246 13.2689C123.737 12.8671 124.407 12.6886 125.033 12.6886C126.685 12.6886 127.489 13.4028 127.489 14.8757C127.489 16.304 126.685 17.0627 125.033 17.0627ZM125.033 36.7909C124.452 36.8356 123.916 36.6124 123.514 36.2107C123.157 35.7643 122.934 35.1395 122.978 34.5592V22.3742C122.978 20.8566 123.648 20.1425 125.033 20.1425C126.417 20.1425 127.132 20.9013 127.132 22.3742V34.5146C127.176 35.0948 126.998 35.7197 126.596 36.166C126.194 36.6124 125.613 36.8356 125.033 36.7909Z" fill="#232323"/>
<path d="M136.689 36.8802C135.662 36.8802 134.679 36.7909 133.652 36.5677C132.67 36.3892 131.687 36.0321 130.794 35.5411C130.392 35.3626 130.079 35.0055 129.945 34.5592C129.811 34.2021 129.856 33.8004 129.99 33.488C130.124 33.1309 130.392 32.8631 130.704 32.7292C131.106 32.5953 131.553 32.5953 131.91 32.8185C132.714 33.2202 133.518 33.488 134.411 33.7111C135.17 33.8897 135.93 33.979 136.689 33.979C137.537 34.0236 138.341 33.8451 139.056 33.4433C139.547 33.1309 139.86 32.5953 139.815 32.0151C139.815 31.0777 139.145 30.4975 137.761 30.2297L134.456 29.6048C131.642 29.0692 130.258 27.5963 130.258 25.2307C130.213 24.2488 130.526 23.2668 131.151 22.4634C131.776 21.66 132.625 21.0351 133.563 20.678C134.724 20.2317 135.93 20.0085 137.136 20.0532C138.967 20.0085 140.753 20.4549 142.361 21.3476C142.718 21.5261 143.031 21.8385 143.12 22.2402C143.209 22.5973 143.165 22.999 142.986 23.3115C142.807 23.6239 142.539 23.8917 142.227 24.0256C141.825 24.1595 141.378 24.1149 141.021 23.8917C140.396 23.5793 139.726 23.3114 139.056 23.1329C138.475 22.999 137.85 22.9097 137.27 22.9097C136.421 22.8651 135.572 23.0436 134.858 23.49C134.367 23.8024 134.054 24.3827 134.099 24.9629C134.099 25.9449 134.724 26.5251 135.974 26.7483L139.279 27.3731C140.485 27.5517 141.602 28.0426 142.539 28.8461C143.299 29.6048 143.701 30.6314 143.656 31.7026C143.701 33.2202 142.986 34.6485 141.78 35.4965C140.262 36.4785 138.475 36.9694 136.689 36.8802Z" fill="#232323"/>
<path d="M154.285 36.8802C152.633 36.9248 151.025 36.5677 149.551 35.8536C148.256 35.1841 147.184 34.2021 146.469 32.9524C145.71 31.5687 145.353 30.0512 145.398 28.489C145.353 26.9715 145.71 25.4539 146.425 24.0702C147.095 22.8205 148.077 21.7939 149.328 21.1244C150.623 20.4103 152.052 20.0086 153.526 20.0532C155.58 19.9639 157.59 20.7673 158.974 22.2403C160.403 23.8917 161.118 26.0341 160.984 28.2212C160.984 29.0246 160.448 29.4263 159.376 29.4263H149.372C149.685 32.3275 151.337 33.7558 154.33 33.7558C155 33.7558 155.625 33.6665 156.25 33.5326C156.965 33.3987 157.635 33.1309 158.304 32.7739C158.706 32.4614 159.242 32.3722 159.778 32.4614C160.136 32.5507 160.448 32.8185 160.627 33.1756C160.805 33.5326 160.805 33.979 160.671 34.336C160.493 34.827 160.18 35.2287 159.734 35.4519C158.93 35.9429 157.992 36.2999 157.054 36.5231C156.161 36.7463 155.223 36.8802 154.285 36.8802ZM153.66 22.8205C152.543 22.7759 151.516 23.1776 150.712 23.9363C149.908 24.7844 149.462 25.8556 149.372 26.9715H157.545C157.545 25.8556 157.143 24.7398 156.429 23.8917C155.714 23.1776 154.687 22.7759 153.66 22.8205Z" fill="#232323"/>
</svg>
